<svg width="32" height="32" viewBox="0 0 32 32" fill="none" xmlns="http://www.w3.org/2000/svg">
<path d="M22.6666 6.66669C22.6666 4.40002 20.9333 2.66669 18.6666 2.66669C16.4 2.66669 14.6666 4.40002 14.6666 6.66669C14.6666 7.73335 15.0666 8.66669 15.7333 9.33335H14.6666C9.46665 9.33335 5.33331 13.4667 5.33331 18.6667C5.33331 21.6 7.73331 24 10.6666 24" stroke="#111827" stroke-width="2.66667" stroke-linecap="round" stroke-linejoin="round"/>
<path d="M22.4 5.20001C22.8 4.80001 23.2 4.53334 23.7334 4.26667C25.7334 3.46667 28.1334 4.40001 28.9334 6.40001C29.7334 8.40001 28.8 10.8 26.8 11.6L28.9334 15.3333C29.2 15.7333 29.2 16.2667 29.2 16.6667C28.9334 17.7333 28 18.2667 26.9334 18.1333C26.9334 18.1333 24.8 17.7333 23.3334 17.3333H22.6667C20.4 17.3333 18.6667 19.0667 18.6667 21.3333" stroke="#111827" stroke-width="2.66667" stroke-linecap="round" stroke-linejoin="round"/>
<path d="M17.6 24C18.1122 23.4275 18.4486 22.7197 18.5692 21.9611C18.6898 21.2024 18.5895 20.4252 18.2801 19.7221C17.9708 19.019 17.4655 18.4198 16.8247 17.9962C16.184 17.5726 15.4348 17.3425 14.6667 17.3333" stroke="#111827" stroke-width="2.66667" stroke-linecap="round" stroke-linejoin="round"/>
<path d="M17.3334 29.3333H5.33335C4.62611 29.3333 3.94783 29.0524 3.44774 28.5523C2.94764 28.0522 2.66669 27.3739 2.66669 26.6667C2.66669 25.9594 2.94764 25.2811 3.44774 24.781C3.94783 24.281 4.62611 24 5.33335 24H21.3334" stroke="#111827" stroke-width="2.66667" stroke-linecap="round" stroke-linejoin="round"/>
<path d="M21.3333 12H21.3471" stroke="#111827" stroke-width="2.66667" stroke-linecap="round" stroke-linejoin="round"/>
</svg>
